<svg width="32" height="32" viewBox="0 0 32 32" fill="none" xmlns="http://www.w3.org/2000/svg">
<g clip-path="url(#clip0_3553_43363)">
<mask id="mask0_3553_43363" style="mask-type:alpha" maskUnits="userSpaceOnUse" x="0" y="0" width="32" height="32">
<path d="M29.3333 0H2.66667C1.19391 0 0 1.19391 0 2.66667V29.3333C0 30.8061 1.19391 32 2.66667 32H29.3333C30.8061 32 32 30.8061 32 29.3333V2.66667C32 1.19391 30.8061 0 29.3333 0Z" fill="white"/>
</mask>
<g mask="url(#mask0_3553_43363)">
<path d="M29.3333 0H2.66667C1.19391 0 0 1.19391 0 2.66667V29.3333C0 30.8061 1.19391 32 2.66667 32H29.3333C30.8061 32 32 30.8061 32 29.3333V2.66667C32 1.19391 30.8061 0 29.3333 0Z" fill="#00A1E0"/>
<path d="M21.0242 19.1352C23.2566 19.1352 25.0664 17.3255 25.0664 15.093C25.0664 12.8605 23.2566 11.0508 21.0242 11.0508C18.7917 11.0508 16.9819 12.8605 16.9819 15.093C16.9819 17.3255 18.7917 19.1352 21.0242 19.1352Z" fill="white"/>
<path d="M21.1379 19.8909H20.8356C17.7959 19.9157 15.2214 22.1384 14.7534 25.142C14.7534 25.4064 14.829 26.0487 15.7734 26.0487H26.049C26.9934 26.0487 27.069 25.482 27.069 25.142C26.7302 22.1301 24.1686 19.8622 21.1379 19.8909Z" fill="white"/>
<path d="M15.471 19.1337C15.6221 18.9826 15.5088 18.8692 15.5088 18.8692C14.7515 17.7544 14.3438 16.4391 14.3377 15.0914C14.3206 13.7111 14.7441 12.3613 15.5466 11.2381C15.5466 11.2172 15.5635 11.2003 15.5844 11.2003C15.6807 11.0831 15.734 10.9365 15.7355 10.7848V6.70477C15.708 6.29939 15.3853 5.97664 14.9799 5.94922H5.61102C5.19429 5.98351 4.8694 6.32465 4.85547 6.74255V24.1959H12.2221C12.7009 22.1894 13.8463 20.4047 15.471 19.1337ZM9.0488 22.0426C9.03324 22.4741 8.687 22.8203 8.25547 22.8359H7.46214C7.0306 22.8203 6.68437 22.4741 6.6688 22.0426V21.2492C6.68437 20.8177 7.0306 20.4715 7.46214 20.4559H8.25547C8.687 20.4715 9.03324 20.8177 9.0488 21.2492V22.0426ZM9.0488 18.0759C9.03324 18.5074 8.687 18.8537 8.25547 18.8692H7.46214C7.0306 18.8537 6.68437 18.5074 6.6688 18.0759V17.2826C6.68437 16.851 7.0306 16.5048 7.46214 16.4892H8.25547C8.687 16.5048 9.03324 16.851 9.0488 17.2826V18.0759ZM9.0488 14.1092C9.03324 14.5408 8.687 14.887 8.25547 14.9026H7.46214C7.0306 14.887 6.68437 14.5408 6.6688 14.1092V13.3159C6.68437 12.8844 7.0306 12.5381 7.46214 12.5226H8.25547C8.687 12.5381 9.03324 12.8844 9.0488 13.3159V14.1092ZM9.0488 10.1426C9.03324 10.5741 8.687 10.9203 8.25547 10.9359H7.46214C7.0306 10.9203 6.68437 10.5741 6.6688 10.1426V9.34922C6.68437 8.91769 7.0306 8.57145 7.46214 8.55589H8.25547C8.687 8.57145 9.03324 8.91769 9.0488 9.34922V10.1426ZM13.5444 18.0759C13.5288 18.5074 13.1826 18.8537 12.751 18.8692H11.9577C11.5262 18.8537 11.1799 18.5074 11.1644 18.0759V17.2826C11.1799 16.851 11.5262 16.5048 11.9577 16.4892H12.751C13.1826 16.5048 13.5288 16.851 13.5444 17.2826V18.0759ZM13.5444 14.1092C13.5288 14.5408 13.1826 14.887 12.751 14.9026H11.9577C11.5262 14.887 11.1799 14.5408 11.1644 14.1092V13.3159C11.1799 12.8844 11.5262 12.5381 11.9577 12.5226H12.751C13.1826 12.5381 13.5288 12.8844 13.5444 13.3159V14.1092ZM13.5444 10.1426C13.5288 10.5741 13.1826 10.9203 12.751 10.9359H11.9577C11.5262 10.9203 11.1799 10.5741 11.1644 10.1426V9.34922C11.1799 8.91769 11.5262 8.57145 11.9577 8.55589H12.751C13.1826 8.57145 13.5288 8.91769 13.5444 9.34922V10.1426Z" fill="white"/>
</g>
</g>
<defs>
<clipPath id="clip0_3553_43363">
<rect width="32" height="32" fill="white"/>
</clipPath>
</defs>
</svg>
